<svg width="20" height="20" viewBox="0 0 20 20" fill="none" xmlns="http://www.w3.org/2000/svg">
<path d="M14.6354 17.9663C14.5003 17.9662 14.3673 17.9334 14.2476 17.8707L10 15.6376L5.75236 17.8707C5.61471 17.943 5.45957 17.9754 5.30448 17.9642C5.14938 17.953 5.00052 17.8986 4.87471 17.8072C4.7489 17.7158 4.65117 17.5911 4.59256 17.447C4.53395 17.303 4.5168 17.1454 4.54305 16.9922L5.35441 12.2623L1.91814 8.91318C1.80682 8.80461 1.72808 8.66707 1.69084 8.5161C1.65359 8.36513 1.65931 8.20675 1.70735 8.05886C1.75539 7.91097 1.84384 7.77947 1.9627 7.67921C2.08156 7.57895 2.2261 7.51394 2.37997 7.49152L7.12891 6.80141L9.2525 2.49836C9.32925 2.3684 9.43856 2.2607 9.56964 2.18588C9.70072 2.11107 9.84905 2.07172 9.99998 2.07172C10.1509 2.07172 10.2992 2.11107 10.4303 2.18588C10.5614 2.2607 10.6707 2.3684 10.7475 2.49836L12.8711 6.80133L17.62 7.49144C17.7739 7.51386 17.9184 7.57888 18.0373 7.67913C18.1561 7.77939 18.2446 7.9109 18.2926 8.05879C18.3407 8.20668 18.3464 8.36506 18.3091 8.51603C18.2719 8.667 18.1932 8.80454 18.0818 8.91311L14.6456 12.2623L15.4569 16.9921C15.4774 17.1117 15.4716 17.2344 15.4397 17.3515C15.4079 17.4686 15.3509 17.5774 15.2726 17.6702C15.1944 17.7629 15.0968 17.8375 14.9867 17.8887C14.8767 17.9398 14.7568 17.9663 14.6354 17.9663L14.6354 17.9663Z" fill="#FFC700"/>
<path d="M18.2926 8.05868C18.2446 7.91082 18.1561 7.77935 18.0372 7.67912C17.9184 7.57889 17.7739 7.51389 17.62 7.49146L12.8711 6.80135L10.7475 2.49838C10.6751 2.3646 10.5668 2.25374 10.4347 2.17834C10.3026 2.10294 10.152 2.066 10 2.07171V15.6376L14.2476 17.8707C14.3853 17.943 14.5404 17.9754 14.6955 17.9642C14.8506 17.953 14.9995 17.8986 15.1253 17.8072C15.2511 17.7158 15.3488 17.5911 15.4074 17.447C15.4661 17.303 15.4832 17.1455 15.4569 16.9922L14.6456 12.2624L18.0819 8.9132C18.1932 8.8046 18.2719 8.66702 18.3092 8.51601C18.3464 8.36501 18.3407 8.2066 18.2926 8.05868V8.05868Z" fill="#FFC700"/>
</svg>
